<svg width="30" height="30" viewBox="0 0 30 30" fill="none" xmlns="http://www.w3.org/2000/svg">
<circle cx="15" cy="15" r="12" fill="#009DAE"/>
<path d="M14.6281 23.3032C14.268 23.2458 13.9749 23.0295 13.8137 22.7021L13.7086 22.4887L13.6999 19.5591L13.6913 16.6295H10.8247C7.68822 16.6295 7.80081 16.6359 7.49319 16.4407C7.31472 16.3275 7.13978 16.0999 7.06164 15.8793C6.97945 15.6473 6.97945 14.6748 7.06164 14.4428C7.13978 14.2222 7.31472 13.9946 7.49319 13.8814C7.80082 13.6862 7.68816 13.6926 10.8254 13.6926H13.6926V10.8254C13.6926 7.68816 13.6862 7.80082 13.8814 7.49319C13.9946 7.31472 14.2222 7.13978 14.4428 7.06164C14.6748 6.97945 15.6473 6.97945 15.8793 7.06164C16.0999 7.13978 16.3275 7.31472 16.4407 7.49319C16.6359 7.80082 16.6295 7.68816 16.6295 10.8254V13.6926H19.4967C22.6339 13.6926 22.5213 13.6862 22.8289 13.8814C23.0074 13.9946 23.1823 14.2222 23.2605 14.4428C23.3063 14.5723 23.317 14.7079 23.317 15.1611C23.317 15.6142 23.3063 15.7498 23.2605 15.8793C23.1823 16.0999 23.0074 16.3275 22.8289 16.4407C22.5213 16.6359 22.6339 16.6295 19.4967 16.6295H16.6295V19.4967C16.6295 22.6339 16.6359 22.5213 16.4407 22.8289C16.3308 23.0022 16.1021 23.1809 15.8953 23.255C15.7288 23.3146 14.8983 23.3462 14.6281 23.3032V23.3032Z" fill="white"/>
</svg>
